<?xml version="1.0" encoding="UTF-8" standalone="no"?>
<svg xmlns="http://www.w3.org/2000/svg" xml:space="preserve" viewBox="0 0 74 74">
	<g style="stroke:#ffffff; stroke-width:2; fill:none;">
        <g transform="translate(-270, -257)">
            <circle cx="307" cy="294" r="36" fill="maroon"/>
            <path transform="translate(124, 117) scale(.6)"
                  d="M 327.508,311.029 C 316.762,315.254 317.883,313.492 315.329,314.515 314.955,314.664 307.347,310.505 304.464,310.254 301.579,310.003 290.539,312.371 284.645,307.174 278.752,301.974 282.113,291.167 282.113,291.167 282.113,291.167 282.504,277.022 293.495,272.737 302.645,269.169 306.419,270.735 306.419,270.735 L 319.38,274.661 323.537,277.982 C 323.537,277.982 330.204,288.058 331.248,289.325 332.291,290.594 340.052,306.098 327.508,311.029 z"/>
        </g>
        <g transform="translate(32, 3) scale(.4)">
            <path fill-rule="evenodd" clip-rule="evenodd"
                  d="M12.0001 3.75317L21.5509 20.2501H2.44922L12.0001 3.75317ZM5.05089 18.7501H18.9492L12.0001 6.74697L5.05089 18.7501Z"/>
        </g>
	</g>
</svg>
