<?xml version="1.0" encoding="UTF-8" standalone="no"?>
<svg xmlns="http://www.w3.org/2000/svg" xml:space="preserve" viewBox="0 0 74 74">
    <g style="stroke:#ffffff; stroke-width:2; fill:none;">
        <g transform="translate(-202,-151)">
            <circle cx="239" cy="188" r="36" fill="MediumAquamarine"/>
            <path transform="translate(96, 74) scale(.6)"
                  d="M 268.58,187.535 C 268.47,187.806 268.345,188.07 268.255,188.345 267.176,191.622 263.966,193.376 260.609,192.505 258.103,191.854 255.622,191.104 253.095,190.552 250.029,189.88 247.027,190.507 244.076,191.358 243.838,191.428 243.562,191.856 243.547,192.13 243.3,196.36 244.114,200.35 246.35,204.004 247.121,205.263 247.834,206.556 248.612,207.812 250.763,211.283 249.068,216.199 244.881,217.129 244.757,217.156 244.648,217.243 244.531,217.302 H 243.151 C 241.23,216.725 239.52,215.864 238.331,214.134 236.22,211.056 236.951,207.235 240.092,205.47 240.644,205.161 241.313,205.02 241.946,204.898 243.112,204.677 243.496,204.171 243.138,203.036 242.873,202.195 242.486,201.391 242.164,200.566 241.16,198.002 240.126,195.449 239.181,192.862 238.924,192.156 238.584,191.896 237.854,191.862 231.984,191.598 226.114,191.325 220.248,191 218.584,190.905 216.897,190.776 215.281,190.399 212.703,189.799 210.768,188.013 210.082,185.817 219.153,186.117 228.166,186.418 237.358,186.72 L 229.836,160.663 C 232.148,160.941 233.824,162.032 234.999,163.776 A 14.322,14.322 0 0 1 236.759,167.374 C 238.72,173.532 240.602,179.717 242.478,185.902 242.7,186.635 243.016,186.915 243.815,187.003 247.009,187.352 250.19,187.814 253.376,188.23 253.766,188.281 254.16,188.34 254.551,188.334 255.57,188.322 256,187.851 255.886,186.845 255.347,182.053 259.872,179.433 263.935,180.945 266.201,181.788 267.739,183.341 268.366,185.725 268.406,185.877 268.507,186.012 268.58,186.156 V 187.535 z M 261.967,190.012 C 264.11,190.012 265.72,188.541 265.719,186.587 265.718,184.825 263.886,183.164 261.947,183.168 260.005,183.171 258.387,184.787 258.375,186.731 258.365,188.586 259.927,190.012 261.967,190.012 z M 240.052,210.795 C 240.045,212.696 241.715,214.449 243.547,214.462 245.351,214.477 246.736,212.991 246.73,211.049 246.722,209.03 245.211,207.328 243.418,207.322 241.604,207.316 240.059,208.91 240.052,210.795 z"/>
        </g>
        <g transform="translate(32, 3) scale(.4)">
            <path fill-rule="evenodd" clip-rule="evenodd"
                  d="M12.0001 3.75317L21.5509 20.2501H2.44922L12.0001 3.75317ZM5.05089 18.7501H18.9492L12.0001 6.74697L5.05089 18.7501Z"/>
        </g>
    </g>
</svg>
